<?xml version="1.0" encoding="UTF-8"?><svg xmlns="http://www.w3.org/2000/svg" width="1200" height="675" viewBox="0 0 1200 675" role="img" aria-label="IRDAI commission overhaul under consideration"><defs><linearGradient id="bg" x1="0" y1="0" x2="1" y2="1"><stop offset="0%" stop-color="#fff"/><stop offset="100%" stop-color="#f6f9fd"/></linearGradient></defs><rect width="1200" height="675" fill="url(#bg)"/><rect width="18" height="675" fill="#132b4e"/><rect x="18" width="6" height="675" fill="#f59e0b"/><g transform="translate(842 34)"><path d="M8 35 Q38 4 68 35" fill="none" stroke="#f59e0b" stroke-width="8" stroke-linecap="round"/><path d="M38 6 v31" stroke="#f59e0b" stroke-width="4"/><circle cx="15" cy="47" r="7" fill="#132b4e"/><rect x="10" y="55" width="10" height="28" rx="4" fill="#132b4e"/><line x1="15" y1="60" x2="2" y2="72" stroke="#132b4e" stroke-width="5" stroke-linecap="round"/><line x1="16" y1="61" x2="31" y2="70" stroke="#132b4e" stroke-width="5" stroke-linecap="round"/><text x="33" y="76" font-family="Arial,Helvetica,sans-serif" font-size="50" font-weight="700" fill="#27853e" text-anchor="start">₹</text><text x="90" y="50" font-family="Arial,Helvetica,sans-serif" font-size="31" font-weight="700" fill="#132b4e" text-anchor="start">TATKAL</text><text x="228" y="50" font-family="Arial,Helvetica,sans-serif" font-size="31" font-weight="700" fill="#27853e" text-anchor="start">CLAIMS</text><line x1="90" y1="62" x2="355" y2="62" stroke="#f59e0b" stroke-width="3"/><text x="90" y="80" font-family="Arial,Helvetica,sans-serif" font-size="11" font-weight="600" fill="#405069" text-anchor="start">TURNING STRESS INTO SETTLEMENT - FAST</text></g><text x="58" y="215" font-family="Arial,Helvetica,sans-serif" font-size="57" font-weight="700" fill="#132b4e" text-anchor="start">Commission Overhaul</text><text x="58" y="282" font-family="Arial,Helvetica,sans-serif" font-size="57" font-weight="700" fill="#27853e" text-anchor="start">Under Consideration</text><rect x="58" y="359" width="95" height="5" rx="3" fill="#f59e0b"/><text x="60" y="377" font-family="Arial,Helvetica,sans-serif" font-size="24" font-weight="500" fill="#65748a" text-anchor="start">Staggered payouts + tighter disclosure</text><text x="60" y="411" font-family="Arial,Helvetica,sans-serif" font-size="24" font-weight="500" fill="#65748a" text-anchor="start">reported • proposals are not final rules</text><g transform="translate(755 150)"><rect x="50" y="30" width="235" height="300" rx="18" fill="#fff" stroke="#cbd5e1" stroke-width="4"/><text x="168" y="83" font-family="Arial,Helvetica,sans-serif" font-size="25" font-weight="700" fill="#132b4e" text-anchor="middle">COMMISSION</text><text x="168" y="115" font-family="Arial,Helvetica,sans-serif" font-size="25" font-weight="700" fill="#132b4e" text-anchor="middle">REVIEW</text><line x1="88" y1="155" x2="245" y2="155" stroke="#c4cfdd" stroke-width="7"/><line x1="88" y1="200" x2="245" y2="200" stroke="#c4cfdd" stroke-width="7"/><line x1="88" y1="245" x2="245" y2="245" stroke="#c4cfdd" stroke-width="7"/><circle cx="292" cy="235" r="82" fill="none" stroke="#132b4e" stroke-width="13"/><line x1="350" y1="293" x2="405" y2="350" stroke="#132b4e" stroke-width="16" stroke-linecap="round"/><path d="M252 235 l24 24 50-60" fill="none" stroke="#27853e" stroke-width="12" stroke-linecap="round" stroke-linejoin="round"/></g><rect y="659" width="310" height="16" fill="#f59e0b"/><rect x="310" y="659" width="330" height="16" fill="#27853e"/><rect x="640" y="659" width="560" height="16" fill="#132b4e"/></svg>